<?xml version="1.0" standalone="no"?>
<!DOCTYPE svg PUBLIC "-//W3C//DTD SVG 20010904//EN"
 "http://www.w3.org/TR/2001/REC-SVG-20010904/DTD/svg10.dtd">
<svg version="1.0" xmlns="http://www.w3.org/2000/svg"
 width="1536.000000pt" height="1024.000000pt" viewBox="0 0 1536.000000 1024.000000"
 preserveAspectRatio="xMidYMid meet">

<g transform="translate(0.000000,1024.000000) scale(0.100000,-0.100000)"
fill="#000000" stroke="none">
<path d="M11940 7745 l0 -115 -110 0 -110 0 0 -95 0 -95 -105 0 -105 0 0 -316
0 -316 -102 3 -103 3 -3 -282 -2 -282 -100 0 -100 0 0 -220 0 -220 -105 0
-105 0 0 -250 0 -250 -107 2 -108 3 -3 -537 -2 -538 110 0 110 0 0 -205 0
-204 103 -3 102 -3 3 -100 3 -100 99 3 100 4 0 -106 0 -106 200 0 200 0 0
-110 0 -110 835 0 835 0 0 110 0 110 125 0 125 0 0 106 0 105 98 -2 97 -2 3
102 3 101 109 0 110 0 0 215 0 215 105 0 105 0 0 525 0 525 -72 0 c-40 0 -89
3 -108 6 l-35 6 3 244 3 244 -111 0 -110 0 0 220 0 220 -105 0 -105 0 0 280 0
280 -100 0 -100 0 -2 313 -3 312 -107 3 -108 3 0 94 0 95 -105 0 -105 0 0 115
0 115 -520 0 -520 0 0 -115z m1030 -220 l0 -95 105 0 105 0 0 -168 c0 -93 3
-358 7 -589 l6 -421 209 -7 208 -8 0 -211 c0 -140 -4 -206 -10 -196 -5 8 -10
100 -10 208 l0 192 -95 0 -94 0 -3 -210 -3 -210 206 0 207 0 7 -502 c3 -277 5
-588 3 -692 l-3 -188 -100 -2 -99 -1 -2 -210 -2 -210 -111 -3 -111 -3 0 -89 0
-90 -100 0 -100 0 0 -90 0 -90 -636 0 -635 0 3 90 3 90 -202 0 -203 0 0 90 0
90 -105 0 -105 0 0 216 0 216 -82 -3 c-46 -1 -93 -1 -106 -1 l-22 2 2 435 3
435 -97 0 -98 0 0 -510 0 -510 105 0 105 0 0 -220 0 -220 100 0 c55 0 101 -3
101 -7 1 -5 3 -43 4 -85 1 -43 5 -81 9 -85 4 -5 78 -9 164 -10 86 -1 174 -2
195 -3 l37 0 0 -105 0 -105 813 2 812 3 -3 91 c-5 121 -5 121 132 118 l106 -3
1 32 c1 18 2 41 3 52 1 11 3 39 4 63 l2 42 100 0 100 0 0 220 0 220 105 0 105
0 0 510 0 509 -92 4 -93 3 100 2 100 2 -3 -520 -2 -520 -105 0 -105 0 0 -220
0 -220 -100 0 -100 0 0 -95 0 -95 -120 0 -120 0 0 -105 0 -105 -827 0 -828 0
3 105 3 105 -205 0 -206 0 0 95 0 95 -100 0 -100 0 0 220 0 220 -105 0 -105 0
0 520 0 520 105 0 105 0 2 248 3 247 88 3 c55 2 87 -1 87 -8 0 -6 -33 -10 -85
-10 l-85 0 0 -240 0 -241 93 3 92 3 0 248 0 247 108 0 107 0 0 500 0 500 93
-2 92 -2 -87 -3 -88 -4 0 -274 0 -275 94 0 94 0 1 283 c0 155 0 420 1 590 l0
307 113 -2 112 -2 -107 -3 -108 -4 0 -304 0 -305 100 0 101 0 -1 228 -1 227
115 3 116 3 0 84 0 85 298 -2 297 -3 3 -82 3 -82 112 -3 112 -3 3 -227 2 -228
90 0 90 0 0 305 0 305 -105 0 -105 0 0 95 0 95 -500 0 -500 0 -2 -87 -2 -88
-5 75 c-3 41 -4 83 -2 93 3 16 36 17 512 17 l509 0 0 -95z m418 -992 l-3 -278
-2 270 -3 271 -87 2 c-119 3 -119 12 0 12 l97 0 -2 -277z m-1971 -300 l-98 -4
1 -200 c1 -111 -1 -203 -4 -207 -3 -3 -6 90 -6 206 l0 212 103 -2 102 -2 -98
-3z m-330 -1215 c-3 -8 -6 -5 -6 6 -1 11 2 17 5 13 3 -3 4 -12 1 -19z m0 -80
c-3 -7 -5 -2 -5 12 0 14 2 19 5 13 2 -7 2 -19 0 -25z m0 -40 c-3 -8 -6 -5 -6
6 -1 11 2 17 5 13 3 -3 4 -12 1 -19z m0 -70 c-2 -13 -4 -5 -4 17 -1 22 1 32 4
23 2 -10 2 -28 0 -40z"/>
<path d="M12151 5773 l2 -88 -111 -3 -111 -3 -3 -87 -3 -87 -100 -1 -100 -1
-3 -436 -2 -437 105 0 104 0 3 -96 3 -97 108 2 107 2 0 -90 0 -91 410 0 410 0
0 91 0 90 105 -3 105 -3 0 97 0 97 108 3 107 3 0 434 0 434 -107 -2 -108 -2 0
93 0 93 -105 -3 -105 -3 0 90 0 91 -411 0 -410 0 2 -87z"/>
<path d="M13614 5555 l-1 -245 94 0 93 0 0 240 0 240 -79 0 c-67 0 -80 -3 -84
-17 -4 -14 -5 -12 -6 5 0 12 -4 22 -9 22 -4 0 -8 -110 -8 -245z"/>
<path d="M930 7575 l0 -95 -90 0 -90 0 0 -85 0 -85 -80 0 -80 0 0 -825 0 -825
80 0 80 0 0 -90 0 -89 88 -3 87 -3 3 -108 3 -107 612 2 611 3 -3 48 -3 47 91
0 91 0 -2 1063 -3 1062 -85 5 c-58 3 -85 9 -86 18 -1 6 -2 46 -3 87 l-1 75
-610 0 -610 0 0 -95z m668 -812 l-3 -48 -72 -3 -73 -3 0 -319 0 -320 -90 0
-90 0 0 370 0 370 166 0 165 0 -3 -47z m-498 -688 l0 -165 360 0 360 0 0 165
0 165 170 0 170 0 0 -281 0 -280 -85 4 -85 5 0 -94 0 -94 -445 0 -445 0 0 93
0 93 -85 -4 -85 -5 0 102 0 101 -87 0 -88 0 3 180 3 180 169 0 170 0 0 -165z"/>
<path d="M1072 6058 c-1 -81 1 -149 6 -151 4 -3 6 41 4 96 -4 184 -8 204 -10
55z"/>
<path d="M771 6174 c0 -11 3 -14 6 -6 3 7 2 16 -1 19 -3 4 -6 -2 -5 -13z"/>
<path d="M1833 6130 c0 -36 2 -50 4 -32 2 17 2 47 0 65 -2 17 -4 3 -4 -33z"/>
<path d="M771 6094 c0 -11 3 -14 6 -6 3 7 2 16 -1 19 -3 4 -6 -2 -5 -13z"/>
<path d="M2131 6094 c0 -11 3 -14 6 -6 3 7 2 16 -1 19 -3 4 -6 -2 -5 -13z"/>
<path d="M2134 5910 c0 -85 2 -120 3 -77 2 42 2 112 0 155 -1 42 -3 7 -3 -78z"/>
<path d="M1833 5980 c0 -36 2 -50 4 -32 2 17 2 47 0 65 -2 17 -4 3 -4 -33z"/>
<path d="M773 5935 c0 -22 2 -30 4 -17 2 12 2 30 0 40 -3 9 -5 -1 -4 -23z"/>
<path d="M1287 5893 c94 -2 252 -2 350 0 98 1 21 2 -172 2 -192 1 -273 -1
-178 -2z"/>
<path d="M943 5828 l-1 -53 9 45 c5 24 5 48 1 52 -5 5 -9 -15 -9 -44z"/>
<path d="M978 5703 c23 -2 61 -2 85 0 23 2 4 4 -43 4 -47 0 -66 -2 -42 -4z"/>
<path d="M2028 5703 c23 -2 61 -2 85 0 23 2 4 4 -43 4 -47 0 -66 -2 -42 -4z"/>
<path d="M1111 5624 c0 -11 3 -14 6 -6 3 7 2 16 -1 19 -3 4 -6 -2 -5 -13z"/>
<path d="M1318 5513 c116 -2 308 -2 425 0 116 1 21 2 -213 2 -234 0 -329 -1
-212 -2z"/>
<path d="M2460 6575 l0 -1095 80 0 80 0 0 -110 0 -110 630 0 630 0 0 110 0
110 75 0 75 0 0 1095 0 1095 -275 0 -275 0 0 -800 0 -800 -235 0 -235 0 0 800
0 800 -275 0 -275 0 0 -1095z m382 -497 l3 -163 403 -3 402 -2 0 165 0 165
113 0 112 0 -3 -277 -2 -278 -80 2 -80 1 0 -94 0 -94 -452 0 -453 0 3 90 c3
69 0 90 -10 91 -7 0 -49 1 -93 2 l-80 2 -2 278 -3 277 110 0 110 0 2 -162z"/>
<path d="M2824 6070 c0 -91 2 -128 3 -82 2 45 2 119 0 165 -1 45 -3 8 -3 -83z"/>
<path d="M2643 6100 c0 -36 2 -50 4 -32 2 17 2 47 0 65 -2 17 -4 3 -4 -33z"/>
<path d="M3853 6005 c0 -44 2 -61 4 -37 2 23 2 59 0 80 -2 20 -4 1 -4 -43z"/>
<path d="M2642 5868 l-2 -168 87 0 c105 0 106 7 3 12 l-75 3 -5 160 -6 160 -2
-167z"/>
<path d="M3850 5815 l0 -104 -72 -4 -73 -3 78 -2 77 -2 0 110 c0 61 -2 110 -5
110 -3 0 -5 -47 -5 -105z"/>
<path d="M2858 5893 c7 -3 16 -2 19 1 4 3 -2 6 -13 5 -11 0 -14 -3 -6 -6z"/>
<path d="M2988 5893 c17 -2 47 -2 65 0 17 2 3 4 -33 4 -36 0 -50 -2 -32 -4z"/>
<path d="M3133 5893 c20 -2 54 -2 75 0 20 2 3 4 -38 4 -41 0 -58 -2 -37 -4z"/>
<path d="M3293 5893 c20 -2 54 -2 75 0 20 2 3 4 -38 4 -41 0 -58 -2 -37 -4z"/>
<path d="M3463 5893 c26 -2 68 -2 95 0 26 2 4 3 -48 3 -52 0 -74 -1 -47 -3z"/>
<path d="M3618 5893 c7 -3 16 -2 19 1 4 3 -2 6 -13 5 -11 0 -14 -3 -6 -6z"/>
<path d="M2824 5595 c0 -49 1 -71 3 -48 2 23 2 64 0 90 -2 26 -3 8 -3 -42z"/>
<path d="M3681 5624 c0 -11 3 -14 6 -6 3 7 2 16 -1 19 -3 4 -6 -2 -5 -13z"/>
<path d="M3260 5520 l-425 -5 428 -3 c279 -1 427 1 427 8 0 6 -1 9 -2 8 -2 -2
-194 -5 -428 -8z"/>
<path d="M4490 7578 l0 -93 -82 0 -83 0 -3 -87 -3 -88 -79 0 -80 0 0 -1025 0
-1025 340 0 340 0 0 235 0 235 240 0 240 0 0 -235 0 -235 345 0 345 0 0 1025
0 1025 -70 0 -70 0 0 90 0 90 -85 0 -85 0 0 90 0 90 -605 0 -605 0 0 -92z
m835 -893 l0 -120 -242 -3 -243 -2 0 125 0 125 243 -2 242 -3 0 -120z m525
-815 l0 -370 -169 0 -169 0 3 285 4 285 -425 0 -424 0 0 -287 0 -288 -170 3
-170 3 0 369 0 370 760 0 760 0 0 -370z"/>
<path d="M5820 5865 l0 -344 -132 -4 -133 -3 138 -2 137 -2 0 350 c0 193 -2
350 -5 350 -3 0 -5 -155 -5 -345z"/>
<path d="M4343 6095 c0 -22 2 -30 4 -17 2 12 2 30 0 40 -3 9 -5 -1 -4 -23z"/>
<path d="M4773 6093 c37 -2 97 -2 135 0 37 2 6 3 -68 3 -74 0 -105 -1 -67 -3z"/>
<path d="M5078 6093 c56 -2 148 -2 205 0 56 1 10 3 -103 3 -113 0 -159 -2
-102 -3z"/>
<path d="M5453 6093 c9 -2 23 -2 30 0 6 3 -1 5 -18 5 -16 0 -22 -2 -12 -5z"/>
<path d="M4643 6025 c0 -27 2 -38 4 -22 2 15 2 37 0 50 -2 12 -4 0 -4 -28z"/>
<path d="M4343 6015 c0 -22 2 -30 4 -17 2 12 2 30 0 40 -3 9 -5 -1 -4 -23z"/>
<path d="M5533 6015 c0 -22 2 -30 4 -17 2 12 2 30 0 40 -3 9 -5 -1 -4 -23z"/>
<path d="M5532 5743 c-1 -128 1 -233 6 -233 4 0 6 69 4 152 -4 286 -8 313 -10
81z"/>
<path d="M4642 5940 c0 -14 2 -19 5 -12 2 6 2 18 0 25 -3 6 -5 1 -5 -13z"/>
<path d="M4341 5934 c0 -11 3 -14 6 -6 3 7 2 16 -1 19 -3 4 -6 -2 -5 -13z"/>
<path d="M4343 5780 c0 -36 2 -50 4 -32 2 17 2 47 0 65 -2 17 -4 3 -4 -33z"/>
<path d="M4343 5655 c0 -22 2 -30 4 -17 2 12 2 30 0 40 -3 9 -5 -1 -4 -23z"/>
<path d="M4341 5594 c0 -11 3 -14 6 -6 3 7 2 16 -1 19 -3 4 -6 -2 -5 -13z"/>
<path d="M4642 5590 c0 -14 2 -19 5 -12 2 6 2 18 0 25 -3 6 -5 1 -5 -13z"/>
<path d="M4495 5520 l-150 -6 153 -2 c96 -1 152 2 152 8 0 6 -1 9 -2 8 -2 -1
-70 -5 -153 -8z"/>
<path d="M6380 7578 l0 -93 -82 0 -83 0 -3 -87 -3 -88 -69 0 -70 0 2 -821 3
-822 75 -1 74 -1 2 -30 c1 -16 2 -58 3 -92 l1 -62 77 -3 77 -3 -3 -107 -2
-108 581 0 580 0 0 110 0 110 85 0 85 0 0 295 0 295 -490 0 -490 0 0 365 0
365 490 0 490 0 0 346 0 346 -85 -3 -85 -4 0 93 0 92 -580 0 -580 0 0 -92z
m180 -1503 l0 -165 490 0 490 0 0 -116 0 -115 -86 2 -87 2 2 -92 2 -91 -405 0
-406 0 0 94 0 95 -82 -2 -83 -2 1 98 2 97 -84 0 -84 0 0 180 0 180 165 0 165
0 0 -165z"/>
<path d="M6532 6105 c0 -16 2 -22 5 -12 2 9 2 23 0 30 -3 6 -5 -1 -5 -18z"/>
<path d="M6243 6040 c0 -25 2 -35 4 -22 2 12 2 32 0 45 -2 12 -4 2 -4 -23z"/>
<path d="M6242 5970 c0 -14 2 -19 5 -12 2 6 2 18 0 25 -3 6 -5 1 -5 -13z"/>
<path d="M6628 5893 c34 -2 88 -2 120 0 31 2 3 3 -63 3 -66 0 -92 -1 -57 -3z"/>
<path d="M6818 5893 c7 -3 16 -2 19 1 4 3 -2 6 -13 5 -11 0 -14 -3 -6 -6z"/>
<path d="M6978 5893 c29 -2 74 -2 100 0 26 2 2 3 -53 3 -55 0 -76 -1 -47 -3z"/>
<path d="M7173 5893 c26 -2 67 -2 90 0 23 2 2 3 -48 3 -49 0 -68 -1 -42 -3z"/>
<path d="M7323 5893 c9 -2 23 -2 30 0 6 3 -1 5 -18 5 -16 0 -22 -2 -12 -5z"/>
<path d="M7443 5893 c15 -2 39 -2 55 0 15 2 2 4 -28 4 -30 0 -43 -2 -27 -4z"/>
<path d="M6412 5778 l-2 -78 78 2 77 2 -72 3 -72 4 -4 72 -3 72 -2 -77z"/>
<path d="M7510 5775 l0 -64 -67 -4 -68 -3 73 -2 72 -2 0 70 c0 39 -2 70 -5 70
-3 0 -5 -29 -5 -65z"/>
<path d="M7340 5600 l0 -80 -380 2 c-209 2 -380 0 -380 -4 0 -5 173 -8 385 -8
l385 0 0 85 c0 47 -2 85 -5 85 -3 0 -5 -36 -5 -80z"/>
<path d="M6581 5604 c0 -11 3 -14 6 -6 3 7 2 16 -1 19 -3 4 -6 -2 -5 -13z"/>
<path d="M8140 7580 l0 -90 -85 0 -85 0 0 -90 0 -90 -75 0 -75 0 0 -1025 0
-1025 335 0 335 0 0 235 0 235 260 0 260 0 0 -235 0 -235 355 0 355 0 0 395 0
395 620 0 620 0 0 415 0 415 -570 0 -569 0 -3 -56 -3 -57 -48 -1 -47 -1 0 278
0 277 -80 0 -79 0 -3 83 -3 82 -87 3 -88 3 0 89 0 90 -620 0 -620 0 0 -90z
m870 -897 l0 -123 -260 0 -260 0 0 119 0 120 28 3 c15 2 132 4 260 4 l232 0 0
-123z m540 -813 l0 -370 -180 0 -180 0 0 285 0 285 -440 2 -440 3 0 -290 0
-290 -160 3 -160 3 0 369 0 370 780 0 780 0 0 -370z"/>
<path d="M9520 5855 l0 -335 -150 0 -150 0 -3 203 -2 202 -3 -207 -2 -208 160
0 160 0 0 340 c0 187 -2 340 -5 340 -3 0 -5 -151 -5 -335z"/>
<path d="M8004 5965 c0 -110 2 -156 3 -103 2 53 2 143 0 200 -1 57 -3 13 -3
-97z"/>
<path d="M8383 6093 c42 -2 112 -2 155 0 42 1 7 3 -78 3 -85 0 -120 -2 -77 -3z"/>
<path d="M8658 6093 c17 -2 47 -2 65 0 17 2 3 4 -33 4 -36 0 -50 -2 -32 -4z"/>
<path d="M8868 6093 c46 -2 118 -2 160 0 42 1 5 3 -83 3 -88 0 -123 -2 -77 -3z"/>
<path d="M9133 6093 c15 -2 37 -2 50 0 12 2 0 4 -28 4 -27 0 -38 -2 -22 -4z"/>
<path d="M9213 5965 c0 -22 2 -30 4 -17 2 12 2 30 0 40 -3 9 -5 -1 -4 -23z"/>
<path d="M8002 5638 l-2 -128 138 2 137 2 -132 3 -132 4 -4 122 -3 122 -2
-127z"/>
<path d="M8292 5555 c0 -16 2 -22 5 -12 2 9 2 23 0 30 -3 6 -5 -1 -5 -18z"/>
<path d="M1214 4855 l6 -95 -85 0 -85 0 0 -85 0 -85 -80 0 -80 0 0 -835 0
-835 80 0 80 0 0 -85 0 -85 80 0 80 0 0 -105 0 -105 659 0 660 0 -2 108 -2
107 83 3 82 3 0 619 0 620 -465 0 -465 0 0 -325 0 -325 -90 0 -90 0 0 375 0
375 555 0 555 0 0 330 0 330 -85 0 -85 0 0 95 0 95 -656 0 -657 0 7 -95z m196
-1500 l0 -165 380 0 380 0 0 165 0 165 175 0 175 0 1 -107 c0 -60 1 -188 2
-286 l2 -177 -93 0 -93 0 3 -90 3 -90 -475 0 -475 0 3 90 3 90 -91 0 -91 0 3
95 3 95 -87 0 -88 0 0 190 0 190 180 0 180 0 0 -165z"/>
<path d="M2500 3235 l0 -264 -77 -4 -78 -3 83 -2 82 -2 0 270 c0 149 -2 270
-5 270 -3 0 -5 -119 -5 -265z"/>
<path d="M1382 3391 c-2 -68 -4 -81 -15 -72 -8 6 -17 7 -22 3 -4 -4 1 7 11 23
13 21 14 27 4 19 -8 -5 -26 -9 -40 -8 -15 1 -30 -6 -38 -17 -7 -11 -17 -17
-21 -14 -5 2 -6 -7 -3 -20 2 -14 9 -25 14 -25 6 0 8 -9 5 -20 -3 -11 -1 -20 3
-20 4 0 6 -9 3 -20 -5 -18 4 -25 29 -22 14 2 16 -29 2 -43 -14 -13 -13 -15 12
-15 21 0 24 3 15 14 -9 10 -8 15 2 19 19 7 43 -8 28 -17 -15 -10 -14 -51 2
-63 18 -15 53 8 49 32 -3 16 -1 17 7 5 9 -13 11 -13 11 3 0 9 -5 17 -12 17 -6
0 -8 3 -5 7 4 4 170 8 369 10 200 2 365 6 367 9 3 2 -166 4 -374 4 -208 -1
-382 3 -386 7 -5 5 -10 71 -12 148 -1 86 -3 107 -5 56z m-65 -70 c-1 -12 -6
-17 -16 -13 -10 4 -12 1 -6 -8 6 -9 4 -11 -4 -6 -9 6 -8 13 6 26 23 24 22 24
20 1z m61 -59 c2 -15 0 -23 -4 -20 -4 4 -8 19 -10 34 -3 34 9 21 14 -14z m7
-72 c3 -5 -1 -10 -9 -10 -8 0 -18 5 -21 10 -3 6 1 10 9 10 8 0 18 -4 21 -10z
m17 -64 c6 4 5 -2 -1 -15 -13 -24 -17 -25 -27 -9 -4 7 -3 8 5 4 8 -5 11 -1 8
16 -2 12 -2 17 0 10 3 -7 9 -9 15 -6z"/>
<path d="M2193 3400 c0 -25 2 -35 4 -22 2 12 2 32 0 45 -2 12 -4 2 -4 -23z"/>
<path d="M1122 3323 c0 -37 -5 -68 -11 -72 -7 -5 -8 -17 -1 -41 6 -19 10 -36
10 -37 0 -2 -9 -3 -20 -3 -11 0 -20 5 -20 11 0 5 5 7 10 4 6 -3 10 -1 10 4 0
6 -4 11 -9 11 -5 0 -11 10 -13 23 -3 13 -6 6 -9 -20 l-5 -43 72 0 c107 0 104
3 104 -106 l0 -94 93 2 92 2 -75 5 c-42 3 -74 10 -72 16 2 5 -1 10 -7 12 -7 1
-8 0 -1 -4 11 -5 4 -23 -10 -23 -6 0 -9 29 -9 65 1 36 5 62 10 59 5 -3 7 -9 4
-14 -3 -5 -1 -11 5 -15 16 -10 11 22 -6 40 -9 9 -13 23 -9 33 6 16 7 16 19 0
16 -22 27 -23 20 -3 -3 8 -14 17 -25 20 -10 4 -19 11 -19 16 0 6 5 7 11 3 7
-4 10 -1 7 7 -3 8 -12 15 -21 17 -12 2 -15 -1 -11 -12 5 -13 -2 -16 -35 -16
l-42 0 21 22 c11 12 21 34 21 50 4 81 1 96 -21 103 -11 3 -20 12 -20 20 0 7
-8 15 -19 18 -17 4 -19 -2 -19 -60z m45 0 c0 -9 -4 -10 -14 -2 -7 6 -13 12
-13 14 0 1 6 2 13 2 8 0 14 -6 14 -14z m-13 -138 c-4 -8 -10 -15 -15 -15 -4 0
-6 7 -3 15 4 8 10 15 15 15 4 0 6 -7 3 -15z"/>
<path d="M1071 3364 c0 -11 3 -14 6 -6 3 7 2 16 -1 19 -3 4 -6 -2 -5 -13z"/>
<path d="M1180 3370 c-9 -6 -10 -10 -3 -10 6 0 15 5 18 10 8 12 4 12 -15 0z"/>
<path d="M1073 3285 c0 -22 2 -30 4 -17 2 12 2 30 0 40 -3 9 -5 -1 -4 -23z"/>
<path d="M1225 3310 c-8 -13 3 -30 18 -30 8 0 7 3 -2 9 -7 5 -10 14 -7 20 4 6
5 11 2 11 -3 0 -8 -4 -11 -10z"/>
<path d="M2192 3300 c0 -14 2 -19 5 -12 2 6 2 18 0 25 -3 6 -5 1 -5 -13z"/>
<path d="M1520 3090 c0 -22 5 -30 18 -31 14 0 14 -2 -3 -9 -14 -6 -15 -9 -5
-9 14 -1 50 32 50 45 0 3 -8 3 -17 0 -17 -6 -17 -5 0 8 25 19 21 26 -13 26
-27 0 -30 -3 -30 -30z"/>
<path d="M1356 3077 c3 -10 9 -15 12 -12 3 3 0 11 -7 18 -10 9 -11 8 -5 -6z"/>
<path d="M1270 3020 c-9 -6 -10 -10 -3 -10 6 0 15 5 18 10 8 12 4 12 -15 0z"/>
<path d="M2322 2878 l-2 -88 -75 2 c-41 1 -78 -2 -82 -5 -3 -4 31 -7 76 -7 59
0 83 4 87 13 3 8 3 49 1 93 l-3 79 -2 -87z"/>
<path d="M1411 2863 c0 -46 3 -83 7 -83 4 0 6 30 4 68 -5 101 -10 107 -11 15z"/>
<path d="M1515 2790 c-4 -6 7 -10 27 -9 27 0 30 2 13 9 -27 12 -33 12 -40 0z"/>
<path d="M2010 2788 c0 -4 16 -8 35 -8 19 0 35 2 35 4 0 2 -16 6 -35 8 -19 2
-35 0 -35 -4z"/>
<path d="M1453 2783 c9 -2 23 -2 30 0 6 3 -1 5 -18 5 -16 0 -22 -2 -12 -5z"/>
<path d="M1693 2783 c9 -2 23 -2 30 0 6 3 -1 5 -18 5 -16 0 -22 -2 -12 -5z"/>
<path d="M1778 2783 c12 -2 32 -2 45 0 12 2 2 4 -23 4 -25 0 -35 -2 -22 -4z"/>
<path d="M2098 2783 c6 -2 18 -2 25 0 6 3 1 5 -13 5 -14 0 -19 -2 -12 -5z"/>
<path d="M2840 3849 l0 -1100 78 2 77 2 3 -106 3 -107 634 0 635 0 0 110 0
110 80 0 80 0 0 1095 0 1095 -285 0 -285 0 0 -800 0 -800 -242 2 -243 3 -3
798 -2 797 -265 0 -265 0 0 -1101z m370 -494 l0 -165 405 0 405 0 0 165 0 165
125 0 125 0 0 -287 0 -288 -85 3 -85 3 0 -90 0 -91 -455 0 -455 0 0 90 0 90
-95 0 -95 0 0 285 0 285 105 0 105 0 0 -165z"/>
<path d="M3192 3443 c-2 -70 -3 -73 -26 -71 -14 1 -22 6 -20 10 3 5 11 5 17 2
9 -5 9 -4 0 6 -7 8 -19 10 -30 5 -10 -5 -21 -7 -25 -7 -13 3 -9 -16 5 -22 6
-2 2 -4 -11 -2 -13 1 -27 9 -32 16 -7 11 -11 11 -24 1 -13 -11 -15 -7 -19 26
-2 21 -4 -71 -5 -204 l-2 -243 93 1 c56 1 82 4 67 8 -14 4 -43 6 -65 5 -30 -2
-35 0 -22 8 10 5 14 14 10 21 -4 7 1 6 10 -2 10 -8 20 -11 24 -7 3 3 0 6 -8 6
-11 0 -11 2 1 10 13 9 13 10 0 11 -8 1 -19 1 -23 0 -5 -1 -6 3 -2 8 3 6 13 7
22 4 11 -4 14 -3 9 5 -4 7 -2 12 3 12 6 0 11 10 11 21 0 17 3 19 13 10 16 -13
28 -5 21 14 -3 7 -1 16 5 20 6 3 11 17 11 31 0 13 4 24 10 24 5 0 7 -6 4 -13
-3 -8 3 -13 15 -13 11 0 17 4 15 8 -6 10 -19 9 160 14 83 2 152 7 155 9 2 3
-77 5 -177 5 l-182 0 -3 168 c-1 92 -4 134 -5 95z m-5 -105 c-3 -8 -6 -5 -6 6
-1 11 2 17 5 13 3 -3 4 -12 1 -19z m-150 -30 c-3 -7 -5 -2 -5 12 0 14 2 19 5
13 2 -7 2 -19 0 -25z"/>
<path d="M4243 3390 c0 -36 2 -50 4 -32 2 17 2 47 0 65 -2 17 -4 3 -4 -33z"/>
<path d="M4240 3145 l0 -174 -77 -4 -78 -3 83 -2 82 -2 0 180 c0 99 -2 180 -5
180 -3 0 -5 -79 -5 -175z"/>
<path d="M3588 3173 c6 -2 18 -2 25 0 6 3 1 5 -13 5 -14 0 -19 -2 -12 -5z"/>
<path d="M3657 3173 c18 -2 50 -2 70 0 21 2 7 4 -32 4 -38 0 -55 -2 -38 -4z"/>
<path d="M3818 3173 c29 -2 74 -2 100 0 26 2 2 3 -53 3 -55 0 -76 -1 -47 -3z"/>
<path d="M3196 3111 c-10 -16 19 -19 39 -5 18 13 17 14 -7 14 -15 0 -29 -4
-32 -9z"/>
<path d="M3225 3080 c-3 -5 -1 -10 4 -10 6 0 11 5 11 10 0 6 -2 10 -4 10 -3 0
-8 -4 -11 -10z"/>
<path d="M3212 2870 c0 -14 2 -19 5 -12 2 6 2 18 0 25 -3 6 -5 1 -5 -13z"/>
<path d="M3212 2800 c0 -14 2 -19 5 -12 2 6 2 18 0 25 -3 6 -5 1 -5 -13z"/>
<path d="M3370 2790 c0 -6 7 -10 15 -10 8 0 15 2 15 4 0 2 -7 6 -15 10 -8 3
-15 1 -15 -4z"/>
<path d="M3445 2790 c-3 -5 -1 -10 4 -10 6 0 11 5 11 10 0 6 -2 10 -4 10 -3 0
-8 -4 -11 -10z"/>
<path d="M3530 2790 c8 -5 20 -10 25 -10 6 0 3 5 -5 10 -8 5 -19 10 -25 10 -5
0 -3 -5 5 -10z"/>
<path d="M3288 2783 c7 -3 16 -2 19 1 4 3 -2 6 -13 5 -11 0 -14 -3 -6 -6z"/>
<path d="M3698 2783 c7 -3 16 -2 19 1 4 3 -2 6 -13 5 -11 0 -14 -3 -6 -6z"/>
<path d="M3798 2783 c6 -2 18 -2 25 0 6 3 1 5 -13 5 -14 0 -19 -2 -12 -5z"/>
<path d="M3948 2783 c7 -3 16 -2 19 1 4 3 -2 6 -13 5 -11 0 -14 -3 -6 -6z"/>
<path d="M4003 2783 c9 -2 23 -2 30 0 6 3 -1 5 -18 5 -16 0 -22 -2 -12 -5z"/>
<path d="M4860 4855 l0 -95 -90 0 -90 0 0 -85 0 -85 -75 0 -75 0 0 -1025 0
-1025 340 0 340 0 0 235 0 235 295 0 295 0 0 -235 0 -235 335 0 335 0 0 1025
0 1025 -70 0 -70 0 -2 53 c-1 28 -2 66 -2 82 l-1 30 -87 3 -88 3 0 94 0 95
-645 0 -645 0 0 -95z m940 -900 l0 -125 -295 0 -295 0 0 125 0 125 295 0 295
0 0 -125z m510 -810 l0 -375 -170 0 -170 0 0 290 0 290 -467 -2 -468 -3 0
-288 0 -287 -175 0 -175 0 3 375 2 375 810 0 810 0 0 -375z"/>
<path d="M4703 3375 c0 -44 2 -61 4 -37 2 23 2 59 0 80 -2 20 -4 1 -4 -43z"/>
<path d="M6281 3374 c0 -11 3 -14 6 -6 3 7 2 16 -1 19 -3 4 -6 -2 -5 -13z"/>
<path d="M5133 3363 c54 -2 139 -2 190 0 51 1 7 3 -98 3 -104 0 -146 -2 -92
-3z"/>
<path d="M5553 3363 c76 -2 198 -2 270 0 73 1 11 3 -138 3 -148 0 -208 -2
-132 -3z"/>
<path d="M5012 3068 l-2 -277 -22 -4 -23 -4 23 -2 c12 0 25 5 27 12 3 7 4 134
2 282 l-2 270 -3 -277z"/>
<path d="M5993 3250 c0 -47 2 -66 4 -42 2 23 2 61 0 85 -2 23 -4 4 -4 -43z"/>
<path d="M6282 3290 c0 -14 2 -19 5 -12 2 6 2 18 0 25 -3 6 -5 1 -5 -13z"/>
<path d="M4704 3055 c0 -132 2 -185 3 -117 2 68 2 176 0 240 -1 64 -3 9 -3
-123z"/>
<path d="M5992 3130 c0 -19 2 -27 5 -17 2 9 2 25 0 35 -3 9 -5 1 -5 -18z"/>
<path d="M5993 3015 c0 -38 2 -53 4 -32 2 20 2 52 0 70 -2 17 -4 1 -4 -38z"/>
<path d="M6283 2935 c0 -22 2 -30 4 -17 2 12 2 30 0 40 -3 9 -5 -1 -4 -23z"/>
<path d="M5993 2850 c0 -41 2 -58 4 -37 2 20 2 54 0 75 -2 20 -4 3 -4 -38z"/>
<path d="M6282 2860 c0 -14 2 -19 5 -12 2 6 2 18 0 25 -3 6 -5 1 -5 -13z"/>
<path d="M4700 2798 c0 -15 9 -18 48 -17 43 1 44 2 18 9 -16 5 -34 7 -39 3 -5
-3 -13 1 -18 8 -7 11 -9 10 -9 -3z"/>
<path d="M6125 2789 c-49 -6 -49 -6 18 -7 65 -2 85 2 50 9 -10 3 -40 1 -68 -2z"/>
<path d="M4808 2783 c7 -3 16 -2 19 1 4 3 -2 6 -13 5 -11 0 -14 -3 -6 -6z"/>
<path d="M6233 2783 c9 -2 23 -2 30 0 6 3 -1 5 -18 5 -16 0 -22 -2 -12 -5z"/>
<path d="M6828 4913 c0 -21 0 -64 1 -95 l3 -58 -81 0 -81 0 0 -85 0 -85 -70 0
-70 0 0 -830 0 -830 75 0 75 0 0 -90 0 -90 75 0 75 0 0 -105 0 -105 635 0 635
0 0 110 0 110 90 0 90 0 0 295 0 295 -550 0 -550 0 0 365 0 365 550 0 550 0 0
340 0 340 -90 0 -90 0 -1 38 c-1 20 0 63 1 95 l2 57 -636 0 -636 0 -2 -37z
m182 -1558 l0 -165 545 0 545 0 0 -122 0 -123 -90 3 -90 3 0 -90 0 -91 -445 0
-445 0 0 90 0 90 -85 0 -85 0 0 95 0 95 -82 0 -83 0 3 190 3 190 154 0 155 0
0 -165z"/>
<path d="M6712 3323 l-2 -163 23 1 c16 1 17 3 5 6 -15 4 -18 23 -21 161 l-3
157 -2 -162z"/>
<path d="M6987 3253 c-3 -5 -1 -17 4 -28 6 -17 7 -16 6 8 -1 28 -3 32 -10 20z"/>
<path d="M7048 3173 c6 -2 18 -2 25 0 6 3 1 5 -13 5 -14 0 -19 -2 -12 -5z"/>
<path d="M7098 3173 c7 -3 16 -2 19 1 4 3 -2 6 -13 5 -11 0 -14 -3 -6 -6z"/>
<path d="M7148 3173 c12 -2 30 -2 40 0 9 3 -1 5 -23 4 -22 0 -30 -2 -17 -4z"/>
<path d="M7258 3173 c7 -3 16 -2 19 1 4 3 -2 6 -13 5 -11 0 -14 -3 -6 -6z"/>
<path d="M7308 3173 c12 -2 30 -2 40 0 9 3 -1 5 -23 4 -22 0 -30 -2 -17 -4z"/>
<path d="M7378 3173 c6 -2 18 -2 25 0 6 3 1 5 -13 5 -14 0 -19 -2 -12 -5z"/>
<path d="M7428 3173 c6 -2 18 -2 25 0 6 3 1 5 -13 5 -14 0 -19 -2 -12 -5z"/>
<path d="M7508 3173 c6 -2 18 -2 25 0 6 3 1 5 -13 5 -14 0 -19 -2 -12 -5z"/>
<path d="M7613 3173 c15 -2 37 -2 50 0 12 2 0 4 -28 4 -27 0 -38 -2 -22 -4z"/>
<path d="M7763 3173 c15 -2 39 -2 55 0 15 2 2 4 -28 4 -30 0 -43 -2 -27 -4z"/>
<path d="M7858 3173 c6 -2 18 -2 25 0 6 3 1 5 -13 5 -14 0 -19 -2 -12 -5z"/>
<path d="M7943 3173 c26 -2 68 -2 95 0 26 2 4 3 -48 3 -52 0 -74 -1 -47 -3z"/>
<path d="M6873 3085 c0 -38 2 -53 4 -32 2 20 2 52 0 70 -2 17 -4 1 -4 -38z"/>
<path d="M8073 3080 c0 -25 2 -35 4 -22 2 12 2 32 0 45 -2 12 -4 2 -4 -23z"/>
<path d="M8010 2970 l-65 -7 68 -1 c39 -1 67 2 67 8 0 6 -1 9 -2 8 -2 -1 -32
-4 -68 -8z"/>
<path d="M6918 2963 c23 -2 59 -2 80 0 20 2 1 4 -43 4 -44 0 -61 -2 -37 -4z"/>
<path d="M7051 2874 c0 -11 3 -14 6 -6 3 7 2 16 -1 19 -3 4 -6 -2 -5 -13z"/>
<path d="M7892 2870 c0 -14 2 -19 5 -12 2 6 2 18 0 25 -3 6 -5 1 -5 -13z"/>
<path d="M7892 2810 c0 -19 2 -27 5 -17 2 9 2 25 0 35 -3 9 -5 1 -5 -18z"/>
<path d="M7051 2814 c0 -11 3 -14 6 -6 3 7 2 16 -1 19 -3 4 -6 -2 -5 -13z"/>
<path d="M7850 2790 c8 -5 20 -10 25 -10 6 0 3 5 -5 10 -8 5 -19 10 -25 10 -5
0 -3 -5 5 -10z"/>
<path d="M7058 2783 c6 -2 18 -2 25 0 6 3 1 5 -13 5 -14 0 -19 -2 -12 -5z"/>
<path d="M7208 2783 c6 -2 18 -2 25 0 6 3 1 5 -13 5 -14 0 -19 -2 -12 -5z"/>
<path d="M7448 2783 c7 -3 16 -2 19 1 4 3 -2 6 -13 5 -11 0 -14 -3 -6 -6z"/>
<path d="M8687 4943 c-4 -3 -7 -46 -7 -95 l0 -88 -80 0 -80 0 0 -85 0 -85 -70
0 -70 0 0 -1025 0 -1025 338 2 337 3 3 233 2 232 295 0 295 0 0 -235 0 -235
345 0 345 0 0 1025 0 1025 -80 0 -80 0 0 85 0 85 -90 0 -90 0 0 95 0 95 -653
0 c-360 0 -657 -3 -660 -7z m963 -988 l0 -125 -300 0 -300 0 0 125 0 125 300
0 300 0 0 -125z m510 -810 l0 -375 -170 0 -170 0 0 290 0 290 -470 0 -470 0 0
-290 0 -290 -170 0 -170 0 0 375 0 375 810 0 810 0 0 -375z"/>
<path d="M10145 3140 c0 -201 1 -283 2 -182 2 100 2 264 0 365 -1 100 -2 18
-2 -183z"/>
<path d="M8555 3130 c0 -195 1 -275 2 -178 2 98 2 258 0 355 -1 98 -2 18 -2
-177z"/>
<path d="M8907 3363 c18 -2 50 -2 70 0 21 2 7 4 -32 4 -38 0 -55 -2 -38 -4z"/>
<path d="M9073 3363 c31 -2 83 -2 115 0 31 2 5 3 -58 3 -63 0 -89 -1 -57 -3z"/>
<path d="M9283 3363 c15 -2 39 -2 55 0 15 2 2 4 -28 4 -30 0 -43 -2 -27 -4z"/>
<path d="M9393 3363 c9 -2 23 -2 30 0 6 3 -1 5 -18 5 -16 0 -22 -2 -12 -5z"/>
<path d="M9458 3363 c6 -2 18 -2 25 0 6 3 1 5 -13 5 -14 0 -19 -2 -12 -5z"/>
<path d="M9573 3363 c42 -2 112 -2 155 0 42 1 7 3 -78 3 -85 0 -120 -2 -77 -3z"/>
<path d="M9844 3070 c0 -129 2 -182 3 -117 2 64 2 170 0 235 -1 64 -3 11 -3
-118z"/>
<path d="M8851 3264 c0 -11 3 -14 6 -6 3 7 2 16 -1 19 -3 4 -6 -2 -5 -13z"/>
<path d="M8853 2835 c0 -27 2 -38 4 -22 2 15 2 37 0 50 -2 12 -4 0 -4 -28z"/>
<path d="M9842 2806 c1 -14 5 -23 9 -20 7 4 0 44 -7 44 -2 0 -3 -11 -2 -24z"/>
<path d="M8603 2783 c20 -2 54 -2 75 0 20 2 3 4 -38 4 -41 0 -58 -2 -37 -4z"/>
<path d="M8748 2783 c7 -3 16 -2 19 1 4 3 -2 6 -13 5 -11 0 -14 -3 -6 -6z"/>
</g>
</svg>
